<?xml version="1.0" encoding="UTF-8" standalone="no"?>
<svg
   xmlns:dc="http://purl.org/dc/elements/1.1/"
   xmlns:cc="http://creativecommons.org/ns#"
   xmlns:rdf="http://www.w3.org/1999/02/22-rdf-syntax-ns#"
   xmlns:svg="http://www.w3.org/2000/svg"
   xmlns="http://www.w3.org/2000/svg"
   xmlns:sodipodi="http://sodipodi.sourceforge.net/DTD/sodipodi-0.dtd"
   xmlns:inkscape="http://www.inkscape.org/namespaces/inkscape"
   version="1.0"
   width="225px"
   height="225px"
   viewBox="0 0 225 225"
   preserveAspectRatio="xMidYMid meet"
   id="svg873"
   sodipodi:docname="logo1.svg"
   inkscape:version="1.0.1 (3bc2e813f5, 2020-09-07)">
  <metadata
     id="metadata879">
    <rdf:RDF>
      <cc:Work
         rdf:about="">
        <dc:format>image/svg+xml</dc:format>
        <dc:type
           rdf:resource="http://purl.org/dc/dcmitype/StillImage" />
      </cc:Work>
    </rdf:RDF>
  </metadata>
  <defs
     id="defs877" />
  <sodipodi:namedview
     pagecolor="#ffffff"
     bordercolor="#666666"
     borderopacity="1"
     objecttolerance="10"
     gridtolerance="10"
     guidetolerance="10"
     inkscape:pageopacity="0"
     inkscape:pageshadow="2"
     inkscape:window-width="1600"
     inkscape:window-height="838"
     id="namedview875"
     showgrid="false"
     inkscape:zoom="1.8418777"
     inkscape:cx="133.81964"
     inkscape:cy="103.28299"
     inkscape:window-x="-8"
     inkscape:window-y="-8"
     inkscape:window-maximized="1"
     inkscape:current-layer="svg873"
     inkscape:document-rotation="0" />
  <g
     fill="#fdc33b"
     id="g859"
     style="fill:#000000;fill-opacity:0">
    <path
       d="M 0,112.5 V 0 H 112.5 225 V 112.5 225 H 112.5 0 Z"
       id="path857"
       style="fill:#000000;fill-opacity:0" />
  </g>
  <g
     fill="#593410"
     id="g871"
     style="fill:#000000;fill-opacity:1">
    <path
       d="m 74,170 c -4.573851,0.0198 -6.495543,-1.69051 -6.5,-5.8 v -51.7 -51.7 0 C 67.315143,56.96612 69.674285,55.188349 74,55 h 36 c 25.41082,0 32.97128,-0.394561 35.12123,0.332443 0.8367,0.28293 0.71487,1.041702 0.71487,1.601996 0,0.59213 0.18247,1.309725 -0.78161,1.61123 C 142.76226,59.262539 135.05614,59 110.7,59 83.9,59 75,59.3 73.8,60.3 71,62.5 71.882598,69.962253 75.559391,69.9968 L 75.9,70 h 35.1 35 v 8.5 8.5 l -16.1,22.1 c -8.8,12.1 -16.2,22.6 -16.5,23.3 -0.8,2.2 -5.2,32.1 -4.7,32.6 0.2,0.2 7,-2.9 15.1,-6.9 12,-6 15.3,-8 17.5,-11.2 1.6,-2.1 3.3,-3.9 3.8,-3.9 0.5,0 0.9,5.8 0.9,13.5 l 0.0109,12.73333 c -3.5e-4,0.5414 -0.26801,0.80479 -0.8147,0.778 v 0 L 110,170 Z"
       id="path861"
       sodipodi:nodetypes="ccccccssssscscccccccsccssccccc"
       style="fill:#000000;fill-opacity:1" />
    <path
       d="m 116.3,152.6 c 0.19138,-1.1159 0.54487,-2.84602 0.74636,-3.72318 0.62585,-2.72451 1.45364,-2.37682 4.55364,0.0232 2.7,2.1 1.9,3.4 -3,4.7 -2.5,0.6 -2.77682,0.84767 -2.3,-1.00002 z"
       id="path863"
       sodipodi:nodetypes="csccc"
       style="fill:#000000;fill-opacity:1" />
    <path
       d="m 123.9,143.9 c -3,-2.2 -5.4,-4.4 -5.3,-5 0.3,-2.5 0.5,-2.9 1.4,-2.9 1.6,0 12.9,8.4 13,9.6 0,0.9 -2.1,2.4 -3.4,2.4 -0.1,0 -2.7,-1.8 -5.7,-4.1 z"
       id="path865"
       style="fill:#000000;fill-opacity:1" />
    <path
       d="m 129,136.9 c -3.6,-2.7 -6.4,-5.4 -6.2,-6.1 0.3,-1.2 27.1,-38.6 28.1,-39.2 0.3,-0.2 3.7,1.8 7.4,4.6 4.5,3.3 6.7,5.4 6.3,6.4 -0.8,2.1 -27.8,39.4 -28.5,39.3 -0.3,0 -3.5,-2.3 -7.1,-5 z"
       id="path867"
       style="fill:#000000;fill-opacity:1" />
    <path
       d="M 160.8,92.9 C 157,90.2 154,87.7 154,87.4 c 0,-1.6 7.3,-10.4 9.1,-10.9 2.3,-0.8 9.2,3.5 11.6,7.2 1.4,2.1 1.3,2.6 -1.1,6.5 -2.8,4.7 -5.1,7.8 -5.7,7.8 -0.2,-0.1 -3.4,-2.3 -7.1,-5.1 z M 174,86.4 c 0,-1.5 -4.2,-5.6 -7.7,-7.5 -2.1,-1.1 -2.6,-1 -4.4,0.8 l -2.1,2 5.8,4.1 c 4.4,3.1 6.1,3.9 7.1,3 0.7,-0.6 1.3,-1.6 1.3,-2.4 z"
       id="path869"
       style="fill:#000000;fill-opacity:1" />
  </g>
</svg>
